<?xml version="1.0" encoding="UTF-8"?>
<svg width="44px" height="44px" viewBox="0 0 44 44" version="1.1" xmlns="http://www.w3.org/2000/svg" xmlns:xlink="http://www.w3.org/1999/xlink">
    <!-- Generator: Sketch 56 (81588) - https://sketch.com -->
    <title>4</title>
    <desc>Created with Sketch.</desc>
    <g id="4" stroke="none" stroke-width="1" fill="none" fill-rule="evenodd">
        <g id="员工管理-copy" transform="translate(7.125000, 7.000000)" fill-rule="nonzero">
            <path d="M29.9948047,28.6247505 C30.0616405,29.3512974 29.4758445,30 28.6856096,30 C28.0487039,30 27.478634,29.5588822 27.4117982,28.9398346 C26.8417283,23.1052181 21.5420438,18.534645 15,18.534645 C16.9107171,18.534645 18.7074203,17.9637867 20.1660129,17 C25.4853551,18.7867123 29.4090087,23.2460793 29.9948047,28.6247505 L29.9948047,28.6247505 Z" id="Path" fill="#FFCE00"></path>
            <path d="M14.9837944,0 C10.0062203,0 5.9675888,4.01353462 5.9675888,8.96017699 C5.9675888,11.9937533 7.4918972,14.6915669 9.82157473,16.3079125 C4.50613848,18.1897449 0.585365854,22.8865174 0,28.5671525 L0,28.684279 C0,29.3987507 0.553936815,30 1.29251923,30 C1.9446718,30 2.51432313,29.5353982 2.56539532,28.8990109 C3.15076117,22.788912 8.37976756,17.9906299 14.8659355,17.9242582 L14.9837944,17.9242582 C16.8931085,17.9242582 18.6884924,17.3230088 20.1460141,16.3079125 C22.4756916,14.6915669 24,11.9937533 24,8.96017699 C24,4.01353462 19.9613685,0 14.9837944,0 Z M15.0859388,15.4255596 L14.9837944,15.4255596 C11.3969553,15.4255596 8.48191193,12.5286309 8.48191193,8.96408121 C8.48191193,5.39953149 11.3969553,2.49869859 14.9837944,2.49869859 C18.5706335,2.49869859 21.4856769,5.39562728 21.4856769,8.96017699 C21.4856769,12.493493 18.6217057,15.3748048 15.0859388,15.4255596 Z" id="Shape" fill="#000000"></path>
        </g>
    </g>
</svg>